Coordinates
version=1
nRows=26
nColumns=24
inDegrees=yes

Units are S.I. units (second, meters, Newtons, ...)
Angles are in degrees.

endheader
time	pelvis_tilt	pelvis_list	pelvis_rotation	pelvis_tx	pelvis_ty	pelvis_tz	hip_flexion_r	hip_adduction_r	hip_rotation_r	knee_angle_r	ankle_angle_r	subtalar_angle_r	mtp_angle_r	hip_flexion_l	hip_adduction_l	hip_rotation_l	knee_angle_l	ankle_angle_l	subtalar_angle_l	mtp_angle_l	lumbar_extension	lumbar_bending	lumbar_rotation
      0.72900000	      0.67265171	     -3.69993569	      6.63746462	     -0.39326026	      1.03473534	      0.29339914	      7.35668816	      9.96482952	     -1.85638464	    -12.53025796	      3.30660456	    -13.79613947	      4.79921406	     16.92882373	     -7.41524796	     -1.95902641	    -67.10505649	     -6.60801364	     -2.72541008	      1.96474943	     -4.77930047	      1.79193897	     -3.06918551
      0.73316667	      0.75252379	     -3.58239968	      6.56303020	     -0.38800920	      1.03541843	      0.29393410	      6.86361039	      9.92449049	     -1.72908235	    -12.39600600	      3.43241145	    -13.73647405	      4.76429656	     17.30380660	     -7.33565921	     -2.09528674	    -66.73825483	     -5.83517863	     -2.87660083	      1.96949728	     -4.91682454	      1.60583718	     -2.93778401
      0.73733333	      0.82666450	     -3.45285574	      6.47742636	     -0.38276660	      1.03609183	      0.29445929	      6.37291104	      9.86739630	     -1.59529627	    -12.25894041	      3.56533278	    -13.66476952	      4.71770683	     17.66070709	     -7.23646916	     -2.23781289	    -66.30241363	     -5.07528585	     -2.99626050	      1.97163024	     -5.04206149	      1.41794849	     -2.79250007
      0.74150000	      0.90655288	     -3.33142005	      6.38222088	     -0.37752928	      1.03674928	      0.29496815	      5.87628940	      9.81529801	     -1.47652245	    -12.11975499	      3.69656345	    -13.58765063	      4.65964845	     17.99625955	     -7.14601208	     -2.39219787	    -65.81565816	     -4.32426738	     -3.09700854	      1.97205059	     -5.17056800	      1.24044571	     -2.64255647
      0.74566667	      0.96729188	     -3.20799748	      6.28199903	     -0.37231272	      1.03737316	      0.29543541	      5.40005432	      9.75229125	     -1.36743375	    -11.97733688	      3.82051142	    -13.48277140	      4.54686856	     18.33410560	     -7.03974559	     -2.54025758	    -65.26566397	     -3.58543632	     -3.18353928	      1.96001460	     -5.28065723	      1.06189314	     -2.44988696
      0.74983333	      1.02652874	     -3.08078579	      6.17189343	     -0.36711643	      1.03797349	      0.29589382	      4.92143286	      9.68452386	     -1.23410304	    -11.82818193	      3.97294109	    -13.39104615	      4.47148087	     18.65536296	     -6.92602823	     -2.69359076	    -64.65766934	     -2.87377925	     -3.22663468	      1.95923847	     -5.39382506	      0.87025264	     -2.33351904
      0.75400000	      1.08367163	     -2.93511313	      6.04853208	     -0.36194325	      1.03857601	      0.29631558	      4.44525276	      9.58996413	     -1.11226605	    -11.68200327	      4.11637455	    -13.27583551	      4.38234686	     18.95170845	     -6.78198802	     -2.85377079	    -63.97955889	     -2.17659150	     -3.27100184	      1.95655075	     -5.51385121	      0.66908207	     -2.17682780
      0.75816667	      1.09406344	     -2.80231763	      5.91655310	     -0.35681015	      1.03905142	      0.29671203	      4.03344262	      9.50005086	     -1.00202759	    -11.55460248	      4.24432619	    -13.19139500	      4.33598459	     19.29201275	     -6.63999332	     -3.01140085	    -63.26312073	     -1.49806053	     -3.35168501	      1.96267357	     -5.58946636	      0.47094675	     -2.08924401
      0.76233333	      1.17655806	     -2.64955729	      5.77813584	     -0.35166720	      1.03966142	      0.29706396	      3.52024401	      9.39146379	     -0.87654656	    -11.38725456	      4.41168672	    -13.03389065	      4.24189700	     19.51564659	     -6.47669112	     -3.16815263	    -62.45677076	     -0.83820672	     -3.30252680	      1.96126727	     -5.73134517	      0.29287745	     -1.87393238
      0.76650000	      1.19881710	     -2.49648922	      5.62136327	     -0.34658876	      1.04015312	      0.29738455	      3.09509597	      9.27034408	     -0.75839881	    -11.25874657	      4.54741811	    -12.92802042	      4.17650245	     19.79130585	     -6.29566020	     -3.32894918	    -61.60162920	     -0.20615621	     -3.33844642	      1.96352848	     -5.83360030	      0.10069270	     -1.74880054
      0.77066667	      1.25871078	     -2.35675892	      5.47071053	     -0.34148787	      1.04065917	      0.29767103	      2.60839225	      9.16429070	     -0.64525830	    -11.08366288	      4.71030281	    -12.76639168	      4.07475776	     20.00810451	     -6.13190561	     -3.48325650	    -60.69146146	      0.40595315	     -3.31455989	      1.95859165	     -5.94690459	     -0.07491442	     -1.54074728
      0.77483333	      1.28120801	     -2.21021329	      5.30566053	     -0.33643705	      1.04109332	      0.29792047	      2.17709157	      9.04049383	     -0.53542104	    -10.93494258	      4.85725652	    -12.60535766	      3.93334128	     20.24668491	     -5.94353670	     -3.63152970	    -59.72380192	      0.99128447	     -3.34084061	      1.94349509	     -6.04984615	     -0.25222869	     -1.33914486
      0.77900000	      1.23245400	     -2.07048392	      5.14403794	     -0.33138269	      1.04137339	      0.29813487	      1.82238953	      8.91565908	     -0.42584833	    -10.77860447	      4.97696183	    -12.52387274	      3.89554791	     20.55094677	     -5.74752278	     -3.77127157	    -58.70944318	      1.52393366	     -3.42216795	      1.94538320	     -6.03993652	     -0.44112942	     -1.28807286
      0.78316667	      1.30538786	     -1.90781456	      4.95172066	     -0.32636135	      1.04184785	      0.29835716	      1.33674950	      8.77159490	     -0.30746137	    -10.63271626	      5.17325695	    -12.34714692	      3.78916853	     20.67770575	     -5.54581743	     -3.94278665	    -57.60088319	      2.01762098	     -3.40154203	      1.92900747	     -6.19217731	     -0.61327607	     -1.03564818
      0.78733333	      1.32470856	     -1.75407128	      4.76629800	     -0.32134429	      1.04221133	      0.29853963	      0.90899769	      8.62817857	     -0.19764146	    -10.47676542	      5.33048525	    -12.19226275	      3.67419174	     20.85052327	     -5.33408000	     -4.09067528	    -56.44472812	      2.47315326	     -3.48071221	      1.90407332	     -6.28040039	     -0.79102446	     -0.84325992
      0.79150000	      1.32615883	     -1.60701397	      4.57837927	     -0.31634186	      1.04250118	      0.29869371	      0.50503796	      8.48667987	     -0.08916153	    -10.32487549	      5.48783199	    -12.05153165	      3.56144562	     21.02537809	     -5.12210829	     -4.23160166	    -55.23520561	      2.88825274	     -3.58603743	      1.87255494	     -6.34684755	     -0.95906217	     -0.67077726
      0.79566667	      1.27868739	     -1.47182064	      4.38272489	     -0.31135888	      1.04268008	      0.29883476	      0.16635062	      8.35162031	      0.03166904	    -10.19210814	      5.62247501	    -11.94621471	      3.48734135	     21.23787611	     -4.91303189	     -4.36303682	    -53.97722864	      3.27779436	     -3.71667922	      1.84793600	     -6.36788102	     -1.11359846	     -0.54912255
      0.79983333	      1.29760085	     -1.33804450	      4.19727483	     -0.30634966	      1.04292802	      0.29894393	     -0.26577107	      8.21928836	      0.13749909	    -10.01336326	      5.78817240	    -11.78728375	      3.37149416	     21.35226168	     -4.70848713	     -4.49209269	    -52.65215203	      3.58213516	     -3.90899769	      1.79560709	     -6.44097976	     -1.25921904	     -0.32902086
      0.80400000	      1.28298535	     -1.21140663	      4.00325118	     -0.30136422	      1.04310865	      0.29903827	     -0.64143273	      8.08637162	      0.22404585	     -9.86920358	      5.92902447	    -11.62455460	      3.16827450	     21.48136357	     -4.50081117	     -4.61083462	    -51.27005966	      3.88232307	     -4.15876730	      1.68883614	     -6.49044188	     -1.39466476	     -0.11073254
      0.80816667	      1.24540156	     -1.09195915	      3.81426353	     -0.29635644	      1.04321405	      0.29913895	     -1.00398319	      7.96355803	      0.36120429	     -9.70214553	      6.08474685	    -11.53923802	      3.07102704	     21.61562760	     -4.30220870	     -4.73050371	    -49.83166565	      4.08361841	     -4.40281523	      1.62496261	     -6.49552657	     -1.52863031	      0.00237300
      0.81233333	      1.21271664	     -0.97433562	      3.63128330	     -0.29135358	      1.04329350	      0.29920800	     -1.35389133	      7.83450373	      0.42527989	     -9.57087108	      6.27595451	    -11.33033441	      2.55836936	     21.72114707	     -4.09226926	     -4.82227846	    -48.33678093	      4.29209716	     -4.70040761	      1.26565969	     -6.50890380	     -1.66749151	      0.30815169
      0.81650000	      1.16593675	     -0.87439034	      3.42900917	     -0.28634865	      1.04330155	      0.29932905	     -1.69631276	      7.73103306	      0.59941129	     -9.41832243	      6.38727261	    -11.30264761	      2.50204815	     21.82126616	     -3.91806175	     -4.95375277	    -46.79343574	      4.43206509	     -5.04137958	      1.21116477	     -6.52208348	     -1.77432877	      0.32520848
      0.82066667	      1.14433665	     -0.78863830	      3.26261218	     -0.28130197	      1.04334159	      0.29936366	     -2.08596062	      7.63858973	      0.72139419	     -9.21874772	      6.49464861	    -11.21941589	      2.41241752	     21.87205036	     -3.73674800	     -5.03161870	    -45.18655419	      4.48116856	     -5.49757720	      1.11464675	     -6.54354668	     -1.85477749	      0.48909922
      0.82483333	      1.07859634	     -0.70513761	      3.08726911	     -0.27624770	      1.04325077	      0.29942717	     -2.40808118	      7.54530959	      0.83925103	     -9.06373780	      6.62919713	    -11.15080520	      2.32770622	     21.94968478	     -3.56582174	     -5.13813963	    -43.53665477	      4.52660363	     -5.93504467	      1.01118019	     -6.50739189	     -1.94582619	      0.63214902
      0.82900000	      1.02569370	     -0.63622423	      2.91796740	     -0.27118644	      1.04316154	      0.29947845	     -2.74429397	      7.46738278	      0.96122729	     -8.90453386	      6.74576838	    -11.06899298	      2.22987034	     21.98945127	     -3.40331594	     -5.22409572	    -41.83022723	      4.53344328	     -6.42188618	      0.88135518	     -6.49084533	     -2.02114209	      0.78442883
      0.83316667	      0.95687827	     -0.56037785	      2.73493269	     -0.26610814	      1.04300881	      0.29956715	     -3.05011688	      7.38090058	      1.10208117	     -8.77959148	      6.87082378	    -11.02138163	      2.16219426	     22.01829277	     -3.24802173	     -5.35652010	    -40.07334380	      4.54225911	     -6.86126395	      0.77997582	     -6.46344083	     -2.12261334	      0.88755456
